<svg xmlns="http://www.w3.org/2000/svg" viewBox="0 2.038 32 29.962"><path fill="#007DB5" d="M12.546 17.416h5.546v3.246h-5.546z"/><path fill="#FFF" d="M14.635 18.776a.407.407 0 0 0 .121-.3c0-.119-.04-.22-.121-.3a.404.404 0 0 0-.3-.121c-.119 0-.22.04-.3.121a.407.407 0 0 0-.121.3c0 .119.04.219.121.3a.407.407 0 0 0 .3.121c.12 0 .22-.041.3-.121m-.552-.3a.245.245 0 0 1 .253-.253.248.248 0 0 1 .253.253.244.244 0 0 1-.253.252.248.248 0 0 1-.253-.252m3.259-.298c-.08-.08-.18-.121-.299-.121s-.219.04-.299.121a.407.407 0 0 0-.121.299c0 .119.04.218.121.299.081.08.18.121.299.121.118 0 .218-.04.299-.121.08-.08.121-.18.121-.299a.403.403 0 0 0-.121-.299m-.119.479a.244.244 0 0 1-.18.072.244.244 0 0 1-.252-.252.244.244 0 0 1 .253-.252.244.244 0 0 1 .252.252.245.245 0 0 1-.073.18m-1.566-.297a.14.14 0 0 1 .14-.14.14.14 0 0 1 .14.14v.535h.166v-.535a.14.14 0 0 1 .14-.14.14.14 0 0 1 .14.14v.535h.166v-.535a.306.306 0 0 0-.529-.209.306.306 0 0 0-.529.209v.535h.166v-.535zm-.797.312s-.048.06-.016.138c.035.084.125.086.125.086l.446-.001v-.168h-.384l.351-.44s.061-.067.018-.155c-.039-.079-.13-.077-.13-.077h-.438v.167h.387l-.359.45zm-.948.084l-.119-.12a.24.24 0 0 1-.195.092.247.247 0 0 1-.254-.252.247.247 0 0 1 .254-.253c.08 0 .145.031.195.093l.119-.12a.4.4 0 0 0-.314-.142c-.12 0-.22.04-.3.121a.407.407 0 0 0-.121.3.411.411 0 0 0 .421.421.4.4 0 0 0 .314-.14m-.04.292h-.1v.132h-.074v.108h.074v.733h.1v-.733h.129v-.108h-.129zm2.968 0h.1v.974h-.1zm.637-.916l-.005-.003a.026.026 0 0 0 .014-.006.017.017 0 0 0 .005-.012.017.017 0 0 0-.003-.01.013.013 0 0 0-.007-.006.044.044 0 0 0-.013-.002h-.029v.066h.009v-.029h.015l.004.002.004.004a.035.035 0 0 1 .006.009l.009.014h.011l-.011-.018a.038.038 0 0 1-.009-.009m-.012-.01h-.019V18.1h.021c.005 0 .008.001.011.003a.011.011 0 0 1 .003.008l-.002.006-.005.004-.009.001"/><path fill="#FFF" d="M17.463 18.057a.07.07 0 0 0 0 .138c.038 0 .069-.031.069-.069s-.032-.069-.069-.069m0 .127a.058.058 0 1 1 0-.116.058.058 0 0 1 0 .116m-3 .997a.393.393 0 0 0-.287.11v-.11h-.1v.841h.1v-.452c.001-.046-.001-.084.005-.112a.126.126 0 0 1 .022-.052c.051-.067.11-.1.198-.112.015-.002.048-.002.062-.002v-.111zm1.401-.001l-.249.701-.251-.701h-.107l.283.789.003.007a.072.072 0 0 0 .025.032.076.076 0 0 0 .094 0 .072.072 0 0 0 .025-.032l.003-.007.281-.789h-.107zm-.685.12a.396.396 0 0 0-.298-.121c-.12 0-.217.04-.298.121a.408.408 0 0 0-.12.302c0 .121.039.219.12.301a.397.397 0 0 0 .298.121.399.399 0 0 0 .315-.141v.138h.102v-.422a.413.413 0 0 0-.119-.299m.017.304a.31.31 0 0 1-.315.316.313.313 0 0 1-.316-.319.31.31 0 0 1 .316-.319.312.312 0 0 1 .315.318v.004zm1.45-.304a.396.396 0 0 0-.298-.121c-.12 0-.217.04-.298.121a.408.408 0 0 0-.12.302c0 .121.039.219.12.301a.397.397 0 0 0 .298.121.407.407 0 0 0 .388-.261l-.093-.045a.302.302 0 0 1-.295.202.306.306 0 0 1-.225-.091.305.305 0 0 1-.09-.203h.731l.001-.025a.477.477 0 0 0-.006-.076.394.394 0 0 0-.113-.225m-.605.226a.308.308 0 0 1 .308-.243.31.31 0 0 1 .307.244l-.615-.001z"/><path fill="#007DB5" d="M0 2.038h32V32H0z"/><path fill="#FFF" d="M12.059 21.104c.466-.465.699-1.041.699-1.728 0-.689-.232-1.266-.697-1.732-.464-.465-1.041-.698-1.73-.698-.688 0-1.266.233-1.732.698-.465.466-.698 1.044-.698 1.732 0 .687.233 1.263.7 1.728.468.466 1.044.698 1.73.698.687.001 1.263-.232 1.728-.698M8.87 19.379c0-.419.138-.767.415-1.043.278-.277.627-.415 1.046-.415.417 0 .764.139 1.041.417.277.278.416.626.416 1.042 0 .416-.139.762-.416 1.039a1.413 1.413 0 0 1-1.041.415 1.421 1.421 0 0 1-1.461-1.455m18.806-1.723c-.463-.464-1.038-.696-1.725-.696-.688 0-1.263.232-1.727.696-.464.464-.696 1.04-.696 1.727 0 .684.233 1.258.698 1.722.466.464 1.041.696 1.725.696.683 0 1.259-.232 1.723-.696.463-.464.696-1.038.696-1.722 0-.687-.232-1.262-.694-1.727m-.688 2.765a1.407 1.407 0 0 1-1.037.414c-.415 0-.762-.138-1.039-.414a1.396 1.396 0 0 1-.417-1.036c0-.417.138-.764.414-1.04.277-.276.625-.414 1.043-.414.415 0 .761.139 1.037.416.277.278.415.624.415 1.038-.001.415-.139.76-.416 1.036m-9.034-1.712a.806.806 0 0 1 1.612 0v3.088h.959v-3.088a.806.806 0 0 1 1.612 0v3.088h.959v-3.088a1.765 1.765 0 0 0-3.05-1.207 1.765 1.765 0 0 0-3.051 1.207v3.088h.959v-3.088zm-4.598 1.8s-.278.348-.09.795c.203.485.723.495.723.495l2.572-.004v-.967h-2.216l2.022-2.539s.352-.384.103-.894c-.224-.458-.749-.446-.749-.446h-2.529v.965l2.23-.001-2.066 2.596zm-5.469.483l-.689-.69a1.389 1.389 0 0 1-1.126.534c-.417 0-.765-.139-1.043-.416a1.407 1.407 0 0 1-.419-1.041c0-.417.14-.764.419-1.041a1.419 1.419 0 0 1 1.043-.416c.464 0 .839.181 1.125.539l.688-.691a2.315 2.315 0 0 0-1.813-.822c-.69 0-1.268.233-1.733.698-.466.466-.699 1.044-.699 1.733 0 .69.233 1.267.699 1.731.466.464 1.043.696 1.733.696.724 0 1.33-.271 1.815-.814m-.229 1.682H7.08v.765h-.427v.619h.428v4.233h.577v-4.233h.743v-.619h-.743zm17.119.001h.578v5.616h-.578zm3.674-5.281a.176.176 0 0 0-.03-.019.138.138 0 0 0 .081-.035.096.096 0 0 0 .026-.068.102.102 0 0 0-.016-.057.09.09 0 0 0-.042-.036.22.22 0 0 0-.077-.01h-.168v.379h.05v-.168h.058a.17.17 0 0 1 .028.002.077.077 0 0 1 .023.01.146.146 0 0 1 .025.025c.01.012.022.029.036.052l.05.079h.063l-.066-.103a.195.195 0 0 0-.041-.051m-.069-.058h-.108v-.126h.12c.028 0 .049.006.062.017.013.011.02.026.02.044a.059.059 0 0 1-.01.034.056.056 0 0 1-.029.023.164.164 0 0 1-.055.008"/><path fill="#FFF" d="M28.37 16.96a.395.395 0 1 0 0 .79.395.395 0 0 0 0-.79m0 .729a.335.335 0 0 1 0-.668.335.335 0 0 1 0 .668m-17.303 5.752a2.305 2.305 0 0 0-.328.019c-.536.072-.973.276-1.329.615v-.634h-.578v4.849h.578v-2.604c.005-.263-.008-.485.029-.648a.702.702 0 0 1 .128-.3c.294-.388.634-.576 1.143-.645.086-.012.275-.011.357-.011v-.641zm8.079-.003l-1.437 4.046-1.45-4.046h-.616l1.635 4.55c.005.014.009.029.015.042a.451.451 0 0 0 .684.186.431.431 0 0 0 .16-.228l1.622-4.55h-.613zm-3.953.69c-.464-.471-1.025-.7-1.716-.7-.692 0-1.254.229-1.719.7-.465.472-.691 1.041-.691 1.741 0 .697.227 1.265.693 1.736.467.471 1.029.7 1.717.7s1.249-.229 1.714-.7c.036-.037.069-.076.102-.114v.799h.589l-.001-2.432c-.002-.694-.227-1.261-.688-1.73m.1 1.757c-.003.516-.177.953-.52 1.299-.346.35-.782.527-1.296.527-.515 0-.952-.177-1.298-.526-.347-.349-.524-.791-.524-1.312 0-.524.175-.967.519-1.317.345-.349.783-.526 1.302-.526.514 0 .951.178 1.296.529.343.348.517.786.52 1.301v.025zm8.364-1.757c-.464-.471-1.025-.7-1.716-.7-.692 0-1.254.229-1.719.7-.465.471-.691 1.041-.691 1.741 0 .697.227 1.265.693 1.735.467.472 1.029.7 1.717.7.689 0 1.249-.229 1.714-.7.238-.241.41-.509.524-.806l-.535-.259a1.754 1.754 0 0 1-.406.642c-.346.35-.782.527-1.296.527-.515 0-.951-.177-1.298-.526a1.771 1.771 0 0 1-.518-1.173h4.215c.002-.047.006-.093.006-.142 0-.152-.012-.296-.034-.436a2.312 2.312 0 0 0-.656-1.303m-3.491 1.305c.072-.336.229-.631.473-.878.346-.349.783-.526 1.302-.526.515 0 .951.178 1.297.529.243.247.401.541.473.875h-3.545z"/></svg>