<?xml version="1.0" encoding="utf-8"?>
<!-- Generator: Adobe Illustrator 16.0.3, SVG Export Plug-In . SVG Version: 6.00 Build 0)  -->
<!DOCTYPE svg PUBLIC "-//W3C//DTD SVG 1.1//EN" "http://www.w3.org/Graphics/SVG/1.1/DTD/svg11.dtd">
<svg version="1.1" id="Layer_1" xmlns="http://www.w3.org/2000/svg" xmlns:xlink="http://www.w3.org/1999/xlink" x="0px" y="0px"
	 width="200px" height="200px" viewBox="0 0 200 200" enable-background="new 0 0 200 200" xml:space="preserve">
<g>
	<path display="none" fill-rule="evenodd" clip-rule="evenodd" fill="#FAFAFA" d="M43.683,62.257c0-15.468,0-30.936,0-46.404
		c21.055,0,42.109,0,63.164,0c-2.868,1.678-3.916,4.105-3.666,7.419c0.263,3.449,0.63,7.064-0.142,10.355
		c-0.514,2.19-2.942,3.939-5.235,6.778c-0.414-2.65-0.557-3.569-0.679-4.34c-1.951,0-3.767,0-5.589,0
		c-0.303,3.843,1.36,8.271-4.019,8.304c-2.169-0.451-4.338-0.903-6.127-1.275c-0.717,2.978-0.569,6.501-1.895,7.172
		c-7.013,3.547-4.073,9.061-3.962,14.626c9.433-4.106,18.377-8,27.681-12.051c0,3.604-0.166,6.761,0.045,9.893
		c0.237,3.491-0.456,6.111-3.499,8.557c-2.092,1.683-2.903,4.927-4.287,7.473c0.487,0.495,0.975,0.99,1.461,1.485
		c2.721-0.864,5.395-1.987,8.182-2.51c2.165-0.407,4.534-0.38,6.705,0.017c3.05,0.558,6,1.638,8.994,2.495
		c0.496-0.646,0.991-1.293,1.488-1.94c-1.9-2.811-3.803-5.621-5.7-8.434c-0.897-1.328-2.439-2.609-2.554-4.002
		c-0.342-4.175-0.122-8.395-0.122-13.143c9.669,4.153,18.825,8.086,28.191,12.109c0.159-2.461,0.489-4.359,0.345-6.222
		c-0.146-1.896-0.142-4.781-1.276-5.446c-3.942-2.313-5.021-5.587-4.449-10.501c-2.718,0.739-4.747,1.29-6.774,1.841
		c-5.737-0.091-3.361-5.068-4.117-8.613c-1.914,0-3.621,0-5.388,0c-0.231,0.982-0.458,1.944-0.684,2.899
		c-4.662-1.047-6.503-3.653-5.905-8.189c0.328-2.48-0.15-5.059,0.108-7.555c0.367-3.547-0.854-5.95-4.261-7.201
		c21.374,0,42.748,0,64.122,0c0,15.468,0,30.936,0,46.404c-2.134-1.571-4.757-4.797-6.291-4.351
		c-2.729,0.794-5.327,3.465-7.005,5.986c-2.021,3.032-3.021,6.726-4.523,10.271c-4.909-2.295-8.156-0.061-11.487,2.714
		c-5.934,4.944-11.527,10.69-18.277,14.18c-10.157,5.253-16.103,12.337-16.375,23.783c-0.039,1.727-0.207,3.45-0.315,5.175
		c-0.535,0-1.07,0-1.604,0c-0.081-1.255-0.176-2.508-0.239-3.763c-0.478-9.342-3.043-17.316-11.838-22.736
		c-7.88-4.855-15.252-10.576-22.514-16.329c-3.671-2.908-7.056-5.264-11.959-3.184c-1.505-3.575-2.457-7.181-4.432-10.114
		c-1.694-2.516-4.28-5.189-7.01-5.984C48.438,57.459,45.814,60.686,43.683,62.257z"/>
	<path fill-rule="evenodd" clip-rule="evenodd" fill="#787878" d="M101.622,8.318c5.24,1.926,7.123,5.624,6.557,11.082
		c-0.396,3.841,0.338,7.811-0.166,11.626c-0.92,6.98,1.913,10.991,9.086,12.603c0.347-1.47,0.696-2.949,1.052-4.461
		c2.72,0,5.347,0,8.292,0c1.164,5.455-2.495,13.114,6.336,13.254c3.12-0.848,6.24-1.696,10.425-2.833
		c-0.882,7.562,0.782,12.602,6.848,16.16c1.744,1.023,1.738,5.463,1.964,8.38c0.221,2.866-0.286,5.787-0.533,9.574
		c-14.41-6.19-28.503-12.243-43.382-18.634c0,7.307-0.335,13.801,0.189,20.226c0.176,2.144,2.549,4.115,3.928,6.159
		c2.922,4.329,5.849,8.654,8.773,12.98c-0.764,0.995-1.527,1.99-2.291,2.985c-4.607-1.319-9.148-2.982-13.841-3.84
		c-3.343-0.611-6.986-0.653-10.32-0.026c-4.289,0.805-8.402,2.533-12.59,3.863c-0.748-0.762-1.499-1.523-2.248-2.285
		c2.13-3.918,3.378-8.911,6.597-11.5c4.683-3.764,5.75-7.795,5.385-13.168c-0.325-4.82-0.069-9.679-0.069-15.224
		C77.295,71.473,63.53,77.465,49.015,83.784c-0.171-8.564-4.695-17.049,6.098-22.507c2.041-1.032,1.812-6.456,2.916-11.038
		c2.753,0.573,6.091,1.269,9.43,1.963c8.276-0.052,5.716-6.865,6.183-12.779c2.804,0,5.599,0,8.601,0
		c0.187,1.187,0.407,2.601,1.044,6.679c3.528-4.369,7.266-7.061,8.057-10.431c1.187-5.064,0.622-10.627,0.219-15.935
		c-0.389-5.1,1.225-8.836,5.64-11.418C98.675,8.318,100.148,8.318,101.622,8.318z"/>
	<path fill-rule="evenodd" clip-rule="evenodd" fill="#787878" d="M0,79.729c3.28-2.418,7.317-7.383,9.673-6.696
		c4.201,1.224,8.182,5.338,10.788,9.21c3.039,4.513,4.504,10.063,6.82,15.563c7.545-3.2,12.755,0.425,18.404,4.9
		c11.174,8.854,22.52,17.657,34.646,25.128c13.534,8.341,17.483,20.613,18.217,34.988c0.097,1.932,0.244,3.86,0.368,5.791
		c-0.558,7.788-1.116,15.576-1.676,23.363c-16.205-0.019-32.411-0.037-48.615-0.056c-0.469-2.24-1.634-4.59-1.294-6.7
		c2.066-12.781-2.317-22.066-12.695-30.314C19.101,142.558,8.561,126.61,5.32,106.487C4.563,101.78,1.826,97.385,0,92.845
		C0,88.473,0,84.101,0,79.729z M92.016,167.126c-0.31-4.192-0.673-7.558-0.782-10.93c-0.328-10.141-5.143-17.949-14.076-22.207
		c-14.382-6.856-25.975-17.044-37.403-27.663c-1.991-1.85-4.992-2.634-7.527-3.909c-0.661,0.71-1.32,1.419-1.979,2.128
		c1.488,2.466,2.66,5.199,4.522,7.347c6.536,7.54,13.426,14.778,19.892,22.371c1.231,1.445,1.149,3.986,1.673,6.022
		c-2.075-0.556-4.842-0.451-6.117-1.767c-14.388-14.83-28.459-29.93-34.197-50.523c-0.45-1.619-1.011-3.316-1.974-4.659
		c-1.266-1.765-2.982-3.215-5.915-6.27c-0.75,4.387-2.021,7.039-1.451,9.219c5.716,21.816,8.837,44.802,28.174,60.534
		c6.601,5.369,12.389,11.71,18.716,17.423c1.484,1.341,3.632,2.711,5.507,2.757C69.829,167.261,80.588,167.126,92.016,167.126z
		 M54.063,173.605c0,4.711,0,8.656,0,12.623c12.97,0,25.365,0,38.025,0c0-4.359,0-8.32,0-12.623
		C79.273,173.605,66.887,173.605,54.063,173.605z"/>
	<path fill-rule="evenodd" clip-rule="evenodd" fill="#787878" d="M101.389,168.613c0.166-2.654,0.423-5.307,0.485-7.964
		c0.417-17.614,9.565-28.516,25.197-36.6c10.389-5.37,18.994-14.213,28.127-21.82c5.128-4.271,10.123-7.709,17.679-4.177
		c2.31-5.456,3.851-11.141,6.958-15.806c2.583-3.879,6.582-7.99,10.782-9.212c2.359-0.687,6.397,4.277,9.68,6.695
		c0,4.372,0,8.744,0,13.116c-1.421,3.184-3.646,6.252-4.137,9.571c-3.543,23.933-16.947,41.815-34.914,57.035
		c-1.676,1.419-3.634,2.736-4.735,4.535c-1.51,2.462-2.947,5.262-3.313,8.059c-0.862,6.578-1.069,13.238-1.541,19.867
		c-16.199,0.021-32.401,0.043-48.603,0.064C102.498,184.189,101.943,176.401,101.389,168.613z M108.277,166.822
		c1.334,0.109,2.53,0.271,3.729,0.297c32.682,0.666,32.865,0.834,55.416-22.753c6.135-6.414,12.344-13.548,15.782-21.508
		c4.743-10.982,7.08-23.015,10.013-34.704c0.715-2.848-0.267-6.113-0.47-9.186c-0.926-0.202-1.85-0.403-2.775-0.605
		c-1.653,2.64-3.982,5.079-4.85,7.952c-6.302,20.817-19.591,37-34.787,51.908c-1.419,1.395-4.041,1.591-6.107,2.343
		c0.506-2.217,0.322-5.005,1.635-6.556c6.44-7.618,13.38-14.821,19.909-22.371c1.802-2.083,2.801-4.849,4.167-7.303
		c-0.568-0.532-1.137-1.065-1.706-1.6c-1.932,0.619-4.433,0.679-5.706,1.945c-13.009,12.961-27.99,23.149-43.772,32.526
		C107.707,143.77,109.348,155.882,108.277,166.822z M108.102,186.05c13.138,0,25.703,0,38.102,0c0-4.552,0-8.512,0-12.347
		c-13.001,0-25.393,0-38.102,0C108.102,177.926,108.102,181.71,108.102,186.05z"/>
	<path display="none" fill-rule="evenodd" clip-rule="evenodd" fill="#FCFCFC" d="M43.683,70.78c1.186,2.95,2.965,5.806,3.457,8.865
		c2.105,13.077,8.955,23.439,19.051,31.464c6.744,5.359,9.592,11.394,8.25,19.699c-0.222,1.371,0.536,2.898,0.841,4.354
		c-0.006,0.32-0.011,0.642-0.017,0.962c-10.527,0-21.055,0-31.582,0C43.683,114.343,43.683,92.562,43.683,70.78z"/>
	<path display="none" fill-rule="evenodd" clip-rule="evenodd" fill="#FCFCFC" d="M142.234,135.155
		c0.306-4.307,0.44-8.635,1.001-12.91c0.236-1.816,1.17-3.636,2.151-5.236c0.716-1.169,1.989-2.025,3.077-2.947
		c11.677-9.89,20.385-21.51,22.688-37.063c0.319-2.156,1.765-4.15,2.688-6.219c0,21.782,0,43.563,0,65.344
		c-10.528,0-21.055,0-31.583,0C142.25,135.802,142.24,135.478,142.234,135.155z"/>
	<path display="none" fill-rule="evenodd" clip-rule="evenodd" fill="#ECECEC" d="M109.566,120.016
		c0.361,5.061,0.723,10.121,1.084,15.182c0.008,0.31,0.018,0.618,0.025,0.927c-1.277,0-2.553,0-3.829,0
		c0.01-0.309,0.018-0.617,0.025-0.927c0.363-5.061,0.727-10.121,1.09-15.182C108.496,120.016,109.031,120.016,109.566,120.016z"/>
	<path display="none" fill-rule="evenodd" clip-rule="evenodd" fill="#717171" d="M106.872,135.197
		c-0.008,0.31-0.016,0.618-0.025,0.927c-10.527,0-21.054,0-31.582,0c0.006-0.32,0.011-0.642,0.017-0.962
		C85.812,135.174,96.342,135.186,106.872,135.197z"/>
	<path display="none" fill-rule="evenodd" clip-rule="evenodd" fill="#717171" d="M110.676,136.124
		c-0.008-0.309-0.018-0.617-0.025-0.927c10.527-0.014,21.056-0.028,31.584-0.042c0.006,0.322,0.016,0.646,0.023,0.969
		C131.729,136.124,121.204,136.124,110.676,136.124z"/>
	<path display="none" fill-rule="evenodd" clip-rule="evenodd" fill="#F6F5F5" d="M103.478,119.049
		c-7.427,0-14.418,0.088-21.402-0.082c-1.219-0.029-2.614-0.92-3.579-1.791c-4.112-3.713-7.873-7.833-12.163-11.322
		C53.768,95.631,51.74,80.694,48.026,66.517c-0.371-1.416,0.455-3.14,0.943-5.99c1.906,1.984,3.021,2.927,3.844,4.074
		c0.625,0.873,0.99,1.976,1.283,3.027c3.729,13.382,12.873,23.194,22.222,32.831c0.829,0.854,2.627,0.787,3.975,1.148
		c-0.34-1.323-0.287-2.975-1.087-3.914c-4.202-4.934-8.679-9.638-12.927-14.536c-1.21-1.396-1.971-3.173-2.939-4.774
		c0.429-0.461,0.857-0.922,1.287-1.383c1.647,0.829,3.598,1.338,4.891,2.54c7.426,6.901,14.959,13.521,24.305,17.976
		c5.805,2.768,8.933,7.842,9.146,14.431C103.039,114.139,103.276,116.325,103.478,119.049z"/>
	<path display="none" fill-rule="evenodd" clip-rule="evenodd" fill="#EDECEB" d="M78.814,123.26c8.333,0,16.382,0,24.71,0
		c0,2.796,0,5.37,0,8.202c-8.228,0-16.282,0-24.71,0C78.814,128.885,78.814,126.321,78.814,123.26z"/>
	<path display="none" fill-rule="evenodd" clip-rule="evenodd" fill="#F6F5F5" d="M114.045,118.852
		c0.694-7.109-0.371-14.979,6.808-19.243c10.256-6.094,19.99-12.715,28.444-21.137c0.826-0.823,2.451-0.861,3.706-1.264
		c0.369,0.347,0.74,0.693,1.109,1.04c-0.888,1.594-1.537,3.391-2.708,4.745c-4.243,4.905-8.752,9.586-12.938,14.537
		c-0.852,1.008-0.732,2.819-1.063,4.26c1.343-0.488,3.048-0.616,3.97-1.522c9.874-9.687,18.51-20.203,22.605-33.73
		c0.564-1.867,2.076-3.452,3.152-5.167c0.6,0.131,1.202,0.262,1.802,0.394c0.132,1.997,0.771,4.119,0.306,5.969
		c-1.904,7.596-3.424,15.415-6.505,22.552c-2.236,5.173-6.271,9.808-10.256,13.977c-14.655,15.327-14.774,15.218-36.012,14.785
		C115.689,119.028,114.911,118.923,114.045,118.852z"/>
	<path display="none" fill-rule="evenodd" clip-rule="evenodd" fill="#EDECEB" d="M113.931,131.347c0-2.82,0-5.28,0-8.023
		c8.258,0,16.309,0,24.759,0c0,2.492,0,5.065,0,8.023C130.633,131.347,122.467,131.347,113.931,131.347z"/>
</g>
</svg>
